<svg width="281" height="68" viewBox="0 0 281 68" fill="none" xmlns="http://www.w3.org/2000/svg">
<path d="M6.64496 46.7913V15.8747H17.3116V19.1247H17.4158C20.1918 16.3486 23.1502 14.958 26.2908 14.958C27.8168 14.958 29.3325 15.1611 30.8325 15.5622C32.3429 15.9684 33.7908 16.5934 35.1658 17.4372C36.5512 18.2861 37.6762 19.4893 38.5408 21.0413C39.4158 22.583 39.8533 24.3747 39.8533 26.4163V46.7913H29.1866V29.3122C29.1866 27.7028 28.671 26.3018 27.645 25.1038C26.6137 23.8955 25.2752 23.2913 23.6241 23.2913C22.0252 23.2913 20.572 23.9163 19.27 25.1663C17.9627 26.4059 17.3116 27.7861 17.3116 29.3122V46.7913H6.64496Z" fill="#00BF63"/>
<path d="M72.0845 32.8122H49.6678C49.6678 34.9788 50.3657 36.583 51.772 37.6247C53.173 38.6663 54.6991 39.1872 56.3553 39.1872C58.0741 39.1872 59.4386 38.958 60.4386 38.4997C61.4491 38.0413 62.6053 37.1351 63.897 35.7705L71.6053 39.6247C68.3813 44.9997 63.0324 47.6872 55.5636 47.6872C50.9074 47.6872 46.9178 46.0934 43.5845 42.8955C40.2511 39.7028 38.5845 35.8538 38.5845 31.3538C38.5845 26.8538 40.2511 22.9997 43.5845 19.7913C46.9178 16.5726 50.9074 14.958 55.5636 14.958C60.4647 14.958 64.4491 16.3747 67.522 19.208C70.6053 22.0413 72.147 26.0934 72.147 31.3538C72.147 32.0778 72.1261 32.5622 72.0845 32.8122ZM49.9595 26.8955H61.7095C61.4699 25.3018 60.8397 24.0726 59.8136 23.208C58.798 22.333 57.4855 21.8955 55.8761 21.8955C54.1105 21.8955 52.6991 22.3643 51.647 23.2913C50.6053 24.208 50.0428 25.4111 49.9595 26.8955Z" fill="#00BF63"/>
<path d="M107.279 46.7912H94.3827L87.5702 38.062L80.7577 46.7912H67.8619L81.0702 30.6453L69.7369 15.8745H82.216L87.5702 23.0412L92.9244 15.8745H105.404L94.0702 30.6453L107.279 46.7912Z" fill="#00BF63"/>
<path d="M107.025 15.8748V4.354H117.692V15.8748H124.213V23.9998H117.692V33.8332C117.692 36.6821 118.494 38.104 120.109 38.104C120.51 38.104 120.932 38.0311 121.38 37.8748C121.822 37.7082 122.161 37.5519 122.4 37.3957L122.755 37.1457L125.421 45.7707C123.13 47.0467 120.515 47.6873 117.588 47.6873C115.572 47.6873 113.843 47.3384 112.4 46.6457C110.952 45.9373 109.859 44.9946 109.109 43.8123C108.369 42.6196 107.838 41.3696 107.505 40.0623C107.182 38.7603 107.025 37.3644 107.025 35.8748V23.9998H102.567V15.8748H107.025Z" fill="#00BF63"/>
<path d="M136.809 14.958C138.57 14.958 140.314 15.1611 142.038 15.5622C143.773 15.9684 145.064 16.3695 145.913 16.7705L147.163 17.3747L143.684 24.3747C141.268 23.083 138.976 22.4372 136.809 22.4372C135.601 22.4372 134.747 22.5726 134.247 22.833C133.747 23.0986 133.497 23.5934 133.497 24.3122C133.497 24.4684 133.507 24.6247 133.538 24.7913C133.58 24.958 133.663 25.1143 133.788 25.2497C133.913 25.3903 134.023 25.5101 134.122 25.6038C134.215 25.7028 134.382 25.8122 134.622 25.9372C134.872 26.0622 135.064 26.1559 135.205 26.208C135.34 26.2653 135.57 26.3538 135.893 26.4788C136.21 26.6038 136.455 26.6976 136.622 26.7497C136.788 26.807 137.059 26.8955 137.434 27.0205C137.82 27.1455 138.111 27.2288 138.309 27.2705C139.559 27.6351 140.643 28.0361 141.559 28.4788C142.486 28.9111 143.46 29.5101 144.476 30.2705C145.502 31.0361 146.294 31.9997 146.851 33.1663C147.419 34.333 147.705 35.6611 147.705 37.1455C147.705 44.1768 142.82 47.6872 133.059 47.6872C130.851 47.6872 128.752 47.3434 126.768 46.6663C124.778 45.9893 123.34 45.307 122.455 44.6247L121.143 43.5413L125.476 36.2497C125.794 36.5309 126.21 36.8643 126.726 37.2497C127.252 37.6247 128.195 38.1455 129.559 38.8122C130.934 39.4684 132.122 39.7913 133.122 39.7913C135.33 39.7913 136.434 39.0518 136.434 37.5622C136.434 36.8851 136.148 36.3538 135.58 35.9788C135.023 35.5934 134.07 35.1611 132.726 34.6872C131.393 34.2028 130.34 33.7601 129.58 33.3538C127.648 32.3538 126.122 31.2236 124.997 29.958C123.872 28.682 123.309 26.9997 123.309 24.9163C123.309 21.7809 124.523 19.333 126.955 17.583C129.382 15.833 132.669 14.958 136.809 14.958Z" fill="#00BF63"/>
<path d="M179.168 19.708C182.053 22.8643 183.501 26.7288 183.501 31.3122C183.501 35.8851 182.053 39.7601 179.168 42.9372C176.277 46.1038 172.605 47.6872 168.147 47.6872C164.048 47.6872 160.673 46.4059 158.022 43.833V62.458H147.355V15.8747H157.897V19.3747H158.022C160.673 16.432 164.048 14.958 168.147 14.958C172.605 14.958 176.277 16.5413 179.168 19.708ZM170.085 36.5622C171.47 35.1872 172.168 33.4372 172.168 31.3122C172.168 29.1768 171.507 27.432 170.189 26.083C168.866 24.7393 167.116 24.0622 164.939 24.0622C162.855 24.0622 161.137 24.7497 159.793 26.1247C158.444 27.4893 157.772 29.208 157.772 31.2913C157.772 33.432 158.465 35.1872 159.855 36.5622C161.241 37.9268 162.939 38.6038 164.939 38.6038C166.991 38.6038 168.71 37.9268 170.085 36.5622Z" fill="#00BF63"/>
<path d="M184.954 42.958C182.063 39.807 180.621 35.9476 180.621 31.3747C180.621 26.7913 182.063 22.9111 184.954 19.7288C187.84 16.5518 191.517 14.958 195.975 14.958C200.069 14.958 203.444 16.2497 206.1 18.833V15.8747H216.767V46.7913H206.225V43.2913H206.1C203.444 46.2236 200.069 47.6872 195.975 47.6872C191.517 47.6872 187.84 46.1143 184.954 42.958ZM194.017 26.1247C192.626 27.4893 191.933 29.2393 191.933 31.3747C191.933 33.4997 192.59 35.2393 193.912 36.583C195.246 37.932 197.001 38.6038 199.183 38.6038C201.267 38.6038 202.98 37.9268 204.329 36.5622C205.673 35.1872 206.35 33.4528 206.35 31.3538C206.35 29.2288 205.652 27.4893 204.267 26.1247C202.876 24.7497 201.183 24.0622 199.183 24.0622C197.126 24.0622 195.402 24.7497 194.017 26.1247Z" fill="#00BF63"/>
<path d="M234.782 23.708C232.782 23.708 231.053 24.4528 229.594 25.9372C228.147 27.4268 227.428 29.208 227.428 31.2913C227.428 33.432 228.147 35.2445 229.594 36.7288C231.053 38.2184 232.782 38.958 234.782 38.958C235.751 38.958 236.667 38.8434 237.532 38.6038C238.391 38.3538 239.022 38.1143 239.428 37.8747L239.969 37.4997L243.594 44.9163C243.303 45.1247 242.907 45.3851 242.407 45.6872C241.907 45.9788 240.761 46.3851 238.969 46.8955C237.188 47.4216 235.272 47.6872 233.219 47.6872C228.678 47.6872 224.688 46.0934 221.261 42.8955C217.829 39.7028 216.115 35.8747 216.115 31.4163C216.115 26.9163 217.829 23.0518 221.261 19.8122C224.688 16.5778 228.678 14.958 233.219 14.958C235.272 14.958 237.162 15.2028 238.886 15.6872C240.605 16.1768 241.834 16.6611 242.574 17.1455L243.594 17.8538L239.969 25.1455C238.647 24.1872 236.917 23.708 234.782 23.708Z" fill="#00BF63"/>
<path d="M273.539 32.8122H251.122C251.122 34.9788 251.82 36.583 253.226 37.6247C254.627 38.6663 256.153 39.1872 257.81 39.1872C259.528 39.1872 260.893 38.958 261.893 38.4997C262.903 38.0413 264.06 37.1351 265.351 35.7705L273.06 39.6247C269.836 44.9997 264.487 47.6872 257.018 47.6872C252.362 47.6872 248.372 46.0934 245.039 42.8955C241.705 39.7028 240.039 35.8538 240.039 31.3538C240.039 26.8538 241.705 22.9997 245.039 19.7913C248.372 16.5726 252.362 14.958 257.018 14.958C261.919 14.958 265.903 16.3747 268.976 19.208C272.06 22.0413 273.601 26.0934 273.601 31.3538C273.601 32.0778 273.58 32.5622 273.539 32.8122ZM251.414 26.8955H263.164C262.924 25.3018 262.294 24.0726 261.268 23.208C260.252 22.333 258.94 21.8955 257.33 21.8955C255.565 21.8955 254.153 22.3643 253.101 23.2913C252.06 24.208 251.497 25.4111 251.414 26.8955Z" fill="#00BF63"/>
</svg>
